<?xml version="1.0" encoding="utf-8"?>
<!-- Generator: Adobe Illustrator 16.0.0, SVG Export Plug-In . SVG Version: 6.00 Build 0)  -->
<!DOCTYPE svg PUBLIC "-//W3C//DTD SVG 1.1//EN" "http://www.w3.org/Graphics/SVG/1.1/DTD/svg11.dtd">
<svg version="1.1" id="Layer_1" xmlns="http://www.w3.org/2000/svg" xmlns:xlink="http://www.w3.org/1999/xlink" x="0px" y="0px"
	 width="300px" height="230px" viewBox="0 0 300 230" enable-background="new 0 0 300 230" xml:space="preserve">
<g>
	<defs>
		<filter id="Adobe_OpacityMaskFilter" filterUnits="userSpaceOnUse" x="0" y="0" width="254.506" height="230">
			<feFlood  style="flood-color:white;flood-opacity:1" result="back"/>
			<feBlend  in="SourceGraphic" in2="back" mode="normal"/>
		</filter>
	</defs>
	<mask maskUnits="userSpaceOnUse" x="0" y="0" width="254.506" height="230" id="SVGID_1_">
		<g filter="url(#Adobe_OpacityMaskFilter)">
			
				<linearGradient id="SVGID_2_" gradientUnits="userSpaceOnUse" x1="-147.6738" y1="266.168" x2="-145.4092" y2="266.168" gradientTransform="matrix(112.4006 0 0 -112.4006 16598.6582 30032.3223)">
				<stop  offset="0" style="stop-color:#FFFFFF"/>
				<stop  offset="1" style="stop-color:#FFFFFF"/>
			</linearGradient>
			<rect x="0" y="0.001" fill="url(#SVGID_2_)" width="300.139" height="229.999"/>
		</g>
	</mask>
	<g mask="url(#SVGID_1_)">
		<g>
			<path fill="#FFFFFF" d="M142.278,43.527c15.275-12.74,33.288-14.854,51.571-7.624c20.74,8.205,24.26,36.415,6.988,50.709
				c-8.047,6.651-17.515,10.065-27.319,12.766c-9.331,2.567-18.69,4.969-28.009,7.499c-5.271,1.434-10.639,2.626-15.688,4.618
				c-5.013,1.962-9.68,4.774-15.29,7.614C114.9,90.369,118.798,63.088,142.278,43.527 M243.479,189.673
				c0-4.097,0.92-7.961,2.521-11.318c-0.035,0.01-0.061,0.024-0.102,0.05c-23.918,9.729-48.626,16.06-74.577,16.19
				c-15.857,0.094-30.262-3.979-41.038-16.806c-13.062-15.557-14.081-30.881,11.895-39.542c6.358-2.126,13.043-3.124,19.52-4.891
				c17.308-4.696,34.877-8.64,51.787-14.484c24.887-8.612,40.587-25.336,41.011-53.396c0.345-22.737-7.593-41.384-27.759-52.941
				C203.215-0.938,177.596-2.574,151.75,3.019c-35.049,7.579-58.323,29.769-70.508,63.124c-9.09,24.877-11.205,49.967-7.103,74.832
				c-18.589,7.14-39.188,12.286-59.161,12.537c-19.959,0.258-19.984,31.391,0,31.13c22.711-0.289,45.909-5.787,67.177-13.571
				c0.24,0.639,0.445,1.287,0.688,1.93c11.768,30.95,34.693,49.546,67.433,55.251c14.746,2.565,29.609,1.976,44.403,0.359
				c19.396-2.133,38.033-7.03,55.267-16.49c1.067-0.583,4.046-3.624,2.717-2.816C247.129,205.072,243.479,197.853,243.479,189.673"
				/>
		</g>
	</g>
	<path fill="#FFFFFF" d="M258.649,186.765c0,10.27,9.283,18.589,20.736,18.589c11.462,0,20.614-8.319,20.614-18.589
		c0-10.251-9.152-18.588-20.614-18.588C267.933,168.177,258.649,176.514,258.649,186.765"/>
</g>
</svg>
